<svg width="325" height="178" viewBox="0 0 325 178" fill="none" xmlns="http://www.w3.org/2000/svg">
<path fill-rule="evenodd" clip-rule="evenodd" d="M325 14.9915C324.834 14.9972 324.667 15 324.5 15C316.492 15 310 8.50813 310 0.5C310 0.332656 310.003 0.165974 310.008 0H14.9915C14.9972 0.165974 15 0.332656 15 0.5C15 8.50813 8.50813 15 0.5 15C0.332656 15 0.165974 14.9972 0 14.9915V163.008C0.165974 163.003 0.332656 163 0.5 163C8.50813 163 15 169.492 15 177.5C15 177.667 14.9972 177.834 14.9915 178H310.008C310.003 177.834 310 177.667 310 177.5C310 169.492 316.492 163 324.5 163C324.667 163 324.834 163.003 325 163.008V14.9915Z" fill="white"/>
<path d="M16 0.5C15.7239 0.5 15.5 0.723858 15.5 1C15.5 1.27614 15.7239 1.5 16 1.5V0.5ZM19.0521 1.5C19.3282 1.5 19.5521 1.27614 19.5521 1C19.5521 0.723858 19.3282 0.5 19.0521 0.5V1.5ZM25.1562 0.5C24.8801 0.5 24.6562 0.723858 24.6562 1C24.6562 1.27614 24.8801 1.5 25.1562 1.5V0.5ZM31.2604 1.5C31.5366 1.5 31.7604 1.27614 31.7604 1C31.7604 0.723858 31.5366 0.5 31.2604 0.5V1.5ZM37.3646 0.5C37.0884 0.5 36.8646 0.723858 36.8646 1C36.8646 1.27614 37.0884 1.5 37.3646 1.5V0.5ZM43.4687 1.5C43.7449 1.5 43.9687 1.27614 43.9687 1C43.9687 0.723858 43.7449 0.5 43.4687 0.5V1.5ZM49.5729 0.5C49.2968 0.5 49.0729 0.723858 49.0729 1C49.0729 1.27614 49.2968 1.5 49.5729 1.5V0.5ZM55.6771 1.5C55.9532 1.5 56.1771 1.27614 56.1771 1C56.1771 0.723858 55.9532 0.5 55.6771 0.5V1.5ZM61.7812 0.5C61.5051 0.5 61.2812 0.723858 61.2812 1C61.2812 1.27614 61.5051 1.5 61.7812 1.5V0.5ZM67.8854 1.5C68.1616 1.5 68.3854 1.27614 68.3854 1C68.3854 0.723858 68.1616 0.5 67.8854 0.5V1.5ZM73.9896 0.5C73.7134 0.5 73.4896 0.723858 73.4896 1C73.4896 1.27614 73.7134 1.5 73.9896 1.5V0.5ZM80.0938 1.5C80.3699 1.5 80.5938 1.27614 80.5938 1C80.5938 0.723858 80.3699 0.5 80.0938 0.5V1.5ZM86.1979 0.5C85.9218 0.5 85.6979 0.723858 85.6979 1C85.6979 1.27614 85.9218 1.5 86.1979 1.5V0.5ZM92.3021 1.5C92.5782 1.5 92.8021 1.27614 92.8021 1C92.8021 0.723858 92.5782 0.5 92.3021 0.5V1.5ZM98.4062 0.5C98.1301 0.5 97.9062 0.723858 97.9062 1C97.9062 1.27614 98.1301 1.5 98.4062 1.5V0.5ZM104.51 1.5C104.787 1.5 105.01 1.27614 105.01 1C105.01 0.723858 104.787 0.5 104.51 0.5V1.5ZM110.615 0.5C110.338 0.5 110.115 0.723858 110.115 1C110.115 1.27614 110.338 1.5 110.615 1.5V0.5ZM116.719 1.5C116.995 1.5 117.219 1.27614 117.219 1C117.219 0.723858 116.995 0.5 116.719 0.5V1.5ZM122.823 0.5C122.547 0.5 122.323 0.723858 122.323 1C122.323 1.27614 122.547 1.5 122.823 1.5V0.5ZM128.927 1.5C129.203 1.5 129.427 1.27614 129.427 1C129.427 0.723858 129.203 0.5 128.927 0.5V1.5ZM135.031 0.5C134.755 0.5 134.531 0.723858 134.531 1C134.531 1.27614 134.755 1.5 135.031 1.5V0.5ZM141.135 1.5C141.412 1.5 141.635 1.27614 141.635 1C141.635 0.723858 141.412 0.5 141.135 0.5V1.5ZM147.24 0.5C146.963 0.5 146.74 0.723858 146.74 1C146.74 1.27614 146.963 1.5 147.24 1.5V0.5ZM153.344 1.5C153.62 1.5 153.844 1.27614 153.844 1C153.844 0.723858 153.62 0.5 153.344 0.5V1.5ZM159.448 0.5C159.172 0.5 158.948 0.723858 158.948 1C158.948 1.27614 159.172 1.5 159.448 1.5V0.5ZM165.552 1.5C165.828 1.5 166.052 1.27614 166.052 1C166.052 0.723858 165.828 0.5 165.552 0.5V1.5ZM171.656 0.5C171.38 0.5 171.156 0.723858 171.156 1C171.156 1.27614 171.38 1.5 171.656 1.5V0.5ZM177.76 1.5C178.037 1.5 178.26 1.27614 178.26 1C178.26 0.723858 178.037 0.5 177.76 0.5V1.5ZM183.865 0.5C183.588 0.5 183.365 0.723858 183.365 1C183.365 1.27614 183.588 1.5 183.865 1.5V0.5ZM189.969 1.5C190.245 1.5 190.469 1.27614 190.469 1C190.469 0.723858 190.245 0.5 189.969 0.5V1.5ZM196.073 0.5C195.797 0.5 195.573 0.723858 195.573 1C195.573 1.27614 195.797 1.5 196.073 1.5V0.5ZM202.177 1.5C202.453 1.5 202.677 1.27614 202.677 1C202.677 0.723858 202.453 0.5 202.177 0.5V1.5ZM208.281 0.5C208.005 0.5 207.781 0.723858 207.781 1C207.781 1.27614 208.005 1.5 208.281 1.5V0.5ZM214.385 1.5C214.662 1.5 214.885 1.27614 214.885 1C214.885 0.723858 214.662 0.5 214.385 0.5V1.5ZM220.49 0.5C220.213 0.5 219.99 0.723858 219.99 1C219.99 1.27614 220.213 1.5 220.49 1.5V0.5ZM226.594 1.5C226.87 1.5 227.094 1.27614 227.094 1C227.094 0.723858 226.87 0.5 226.594 0.5V1.5ZM232.698 0.5C232.422 0.5 232.198 0.723858 232.198 1C232.198 1.27614 232.422 1.5 232.698 1.5V0.5ZM238.802 1.5C239.078 1.5 239.302 1.27614 239.302 1C239.302 0.723858 239.078 0.5 238.802 0.5V1.5ZM244.906 0.5C244.63 0.5 244.406 0.723858 244.406 1C244.406 1.27614 244.63 1.5 244.906 1.5V0.5ZM251.01 1.5C251.287 1.5 251.51 1.27614 251.51 1C251.51 0.723858 251.287 0.5 251.01 0.5V1.5ZM257.115 0.5C256.839 0.5 256.615 0.723858 256.615 1C256.615 1.27614 256.839 1.5 257.115 1.5V0.5ZM263.219 1.5C263.495 1.5 263.719 1.27614 263.719 1C263.719 0.723858 263.495 0.5 263.219 0.5V1.5ZM269.323 0.5C269.047 0.5 268.823 0.723858 268.823 1C268.823 1.27614 269.047 1.5 269.323 1.5V0.5ZM275.427 1.5C275.703 1.5 275.927 1.27614 275.927 1C275.927 0.723858 275.703 0.5 275.427 0.5V1.5ZM281.531 0.5C281.255 0.5 281.031 0.723858 281.031 1C281.031 1.27614 281.255 1.5 281.531 1.5V0.5ZM287.635 1.5C287.912 1.5 288.135 1.27614 288.135 1C288.135 0.723858 287.912 0.5 287.635 0.5V1.5ZM293.74 0.5C293.463 0.5 293.24 0.723858 293.24 1C293.24 1.27614 293.463 1.5 293.74 1.5V0.5ZM299.844 1.5C300.12 1.5 300.344 1.27614 300.344 1C300.344 0.723858 300.12 0.5 299.844 0.5V1.5ZM305.948 0.5C305.672 0.5 305.448 0.723858 305.448 1C305.448 1.27614 305.672 1.5 305.948 1.5V0.5ZM16 1.5H19.0521V0.5H16V1.5ZM25.1562 1.5H31.2604V0.5H25.1562V1.5ZM37.3646 1.5H43.4687V0.5H37.3646V1.5ZM49.5729 1.5H55.6771V0.5H49.5729V1.5ZM61.7812 1.5H67.8854V0.5H61.7812V1.5ZM73.9896 1.5H80.0938V0.5H73.9896V1.5ZM86.1979 1.5H92.3021V0.5H86.1979V1.5ZM98.4062 1.5H104.51V0.5H98.4062V1.5ZM110.615 1.5H116.719V0.5H110.615V1.5ZM122.823 1.5H128.927V0.5H122.823V1.5ZM135.031 1.5H141.135V0.5H135.031V1.5ZM147.24 1.5H153.344V0.5H147.24V1.5ZM159.448 1.5H165.552V0.5H159.448V1.5ZM171.656 1.5H177.76V0.5H171.656V1.5ZM183.865 1.5H189.969V0.5H183.865V1.5ZM196.073 1.5H202.177V0.5H196.073V1.5ZM208.281 1.5H214.385V0.5H208.281V1.5ZM220.49 1.5H226.594V0.5H220.49V1.5ZM232.698 1.5H238.802V0.5H232.698V1.5ZM244.906 1.5H251.01V0.5H244.906V1.5ZM257.115 1.5H263.219V0.5H257.115V1.5ZM269.323 1.5H275.427V0.5H269.323V1.5ZM281.531 1.5H287.635V0.5H281.531V1.5ZM293.74 1.5H299.844V0.5H293.74V1.5ZM305.948 1.5H309V0.5H305.948V1.5ZM16 0C15.4477 0 15 0.447715 15 1C15 1.55228 15.4477 2 16 2V0ZM19.0521 2C19.6044 2 20.0521 1.55228 20.0521 1C20.0521 0.447715 19.6044 0 19.0521 0V2ZM25.1562 0C24.604 0 24.1562 0.447715 24.1562 1C24.1562 1.55228 24.604 2 25.1562 2V0ZM31.2604 2C31.8127 2 32.2604 1.55228 32.2604 1C32.2604 0.447715 31.8127 0 31.2604 0V2ZM37.3646 0C36.8123 0 36.3646 0.447715 36.3646 1C36.3646 1.55228 36.8123 2 37.3646 2V0ZM43.4687 2C44.021 2 44.4687 1.55228 44.4687 1C44.4687 0.447715 44.021 0 43.4687 0V2ZM49.5729 0C49.0206 0 48.5729 0.447715 48.5729 1C48.5729 1.55228 49.0206 2 49.5729 2V0ZM55.6771 2C56.2294 2 56.6771 1.55228 56.6771 1C56.6771 0.447715 56.2294 0 55.6771 0V2ZM61.7812 0C61.229 0 60.7812 0.447715 60.7812 1C60.7812 1.55228 61.229 2 61.7812 2V0ZM67.8854 2C68.4377 2 68.8854 1.55228 68.8854 1C68.8854 0.447715 68.4377 0 67.8854 0V2ZM73.9896 0C73.4373 0 72.9896 0.447715 72.9896 1C72.9896 1.55228 73.4373 2 73.9896 2V0ZM80.0938 2C80.646 2 81.0938 1.55228 81.0938 1C81.0938 0.447715 80.646 0 80.0938 0V2ZM86.1979 0C85.6456 0 85.1979 0.447715 85.1979 1C85.1979 1.55228 85.6456 2 86.1979 2V0ZM92.3021 2C92.8544 2 93.3021 1.55228 93.3021 1C93.3021 0.447715 92.8544 0 92.3021 0V2ZM98.4062 0C97.854 0 97.4062 0.447715 97.4062 1C97.4062 1.55228 97.854 2 98.4062 2V0ZM104.51 2C105.063 2 105.51 1.55228 105.51 1C105.51 0.447715 105.063 0 104.51 0V2ZM110.615 0C110.062 0 109.615 0.447715 109.615 1C109.615 1.55228 110.062 2 110.615 2V0ZM116.719 2C117.271 2 117.719 1.55228 117.719 1C117.719 0.447715 117.271 0 116.719 0V2ZM122.823 0C122.271 0 121.823 0.447715 121.823 1C121.823 1.55228 122.271 2 122.823 2V0ZM128.927 2C129.479 2 129.927 1.55228 129.927 1C129.927 0.447715 129.479 0 128.927 0V2ZM135.031 0C134.479 0 134.031 0.447715 134.031 1C134.031 1.55228 134.479 2 135.031 2V0ZM141.135 2C141.688 2 142.135 1.55228 142.135 1C142.135 0.447715 141.688 0 141.135 0V2ZM147.24 0C146.687 0 146.24 0.447715 146.24 1C146.24 1.55228 146.687 2 147.24 2V0ZM153.344 2C153.896 2 154.344 1.55228 154.344 1C154.344 0.447715 153.896 0 153.344 0V2ZM159.448 0C158.896 0 158.448 0.447715 158.448 1C158.448 1.55228 158.896 2 159.448 2V0ZM165.552 2C166.104 2 166.552 1.55228 166.552 1C166.552 0.447715 166.104 0 165.552 0V2ZM171.656 0C171.104 0 170.656 0.447715 170.656 1C170.656 1.55228 171.104 2 171.656 2V0ZM177.76 2C178.313 2 178.76 1.55228 178.76 1C178.76 0.447715 178.313 0 177.76 0V2ZM183.865 0C183.312 0 182.865 0.447715 182.865 1C182.865 1.55228 183.312 2 183.865 2V0ZM189.969 2C190.521 2 190.969 1.55228 190.969 1C190.969 0.447715 190.521 0 189.969 0V2ZM196.073 0C195.521 0 195.073 0.447715 195.073 1C195.073 1.55228 195.521 2 196.073 2V0ZM202.177 2C202.729 2 203.177 1.55228 203.177 1C203.177 0.447715 202.729 0 202.177 0V2ZM208.281 0C207.729 0 207.281 0.447715 207.281 1C207.281 1.55228 207.729 2 208.281 2V0ZM214.385 2C214.938 2 215.385 1.55228 215.385 1C215.385 0.447715 214.938 0 214.385 0V2ZM220.49 0C219.937 0 219.49 0.447715 219.49 1C219.49 1.55228 219.937 2 220.49 2V0ZM226.594 2C227.146 2 227.594 1.55228 227.594 1C227.594 0.447715 227.146 0 226.594 0V2ZM232.698 0C232.146 0 231.698 0.447715 231.698 1C231.698 1.55228 232.146 2 232.698 2V0ZM238.802 2C239.354 2 239.802 1.55228 239.802 1C239.802 0.447715 239.354 0 238.802 0V2ZM244.906 0C244.354 0 243.906 0.447715 243.906 1C243.906 1.55228 244.354 2 244.906 2V0ZM251.01 2C251.563 2 252.01 1.55228 252.01 1C252.01 0.447715 251.563 0 251.01 0V2ZM257.115 0C256.562 0 256.115 0.447715 256.115 1C256.115 1.55228 256.562 2 257.115 2V0ZM263.219 2C263.771 2 264.219 1.55228 264.219 1C264.219 0.447715 263.771 0 263.219 0V2ZM269.323 0C268.771 0 268.323 0.447715 268.323 1C268.323 1.55228 268.771 2 269.323 2V0ZM275.427 2C275.979 2 276.427 1.55228 276.427 1C276.427 0.447715 275.979 0 275.427 0V2ZM281.531 0C280.979 0 280.531 0.447715 280.531 1C280.531 1.55228 280.979 2 281.531 2V0ZM287.635 2C288.188 2 288.635 1.55228 288.635 1C288.635 0.447715 288.188 0 287.635 0V2ZM293.74 0C293.187 0 292.74 0.447715 292.74 1C292.74 1.55228 293.187 2 293.74 2V0ZM299.844 2C300.396 2 300.844 1.55228 300.844 1C300.844 0.447715 300.396 0 299.844 0V2ZM305.948 0C305.396 0 304.948 0.447715 304.948 1C304.948 1.55228 305.396 2 305.948 2V0ZM16 2H19.0521V0H16V2ZM25.1562 2H31.2604V0H25.1562V2ZM37.3646 2H43.4687V0H37.3646V2ZM49.5729 2H55.6771V0H49.5729V2ZM61.7812 2H67.8854V0H61.7812V2ZM73.9896 2H80.0938V0H73.9896V2ZM86.1979 2H92.3021V0H86.1979V2ZM98.4062 2H104.51V0H98.4062V2ZM110.615 2H116.719V0H110.615V2ZM122.823 2H128.927V0H122.823V2ZM135.031 2H141.135V0H135.031V2ZM147.24 2H153.344V0H147.24V2ZM159.448 2H165.552V0H159.448V2ZM171.656 2H177.76V0H171.656V2ZM183.865 2H189.969V0H183.865V2ZM196.073 2H202.177V0H196.073V2ZM208.281 2H214.385V0H208.281V2ZM220.49 2H226.594V0H220.49V2ZM232.698 2H238.802V0H232.698V2ZM244.906 2H251.01V0H244.906V2ZM257.115 2H263.219V0H257.115V2ZM269.323 2H275.427V0H269.323V2ZM281.531 2H287.635V0H281.531V2ZM293.74 2H299.844V0H293.74V2ZM305.948 2H309V0H305.948V2Z" fill="#E5E5E5"/>
<path d="M16 176.5C15.7239 176.5 15.5 176.724 15.5 177C15.5 177.276 15.7239 177.5 16 177.5V176.5ZM19.0521 177.5C19.3282 177.5 19.5521 177.276 19.5521 177C19.5521 176.724 19.3282 176.5 19.0521 176.5V177.5ZM25.1562 176.5C24.8801 176.5 24.6562 176.724 24.6562 177C24.6562 177.276 24.8801 177.5 25.1562 177.5V176.5ZM31.2604 177.5C31.5366 177.5 31.7604 177.276 31.7604 177C31.7604 176.724 31.5366 176.5 31.2604 176.5V177.5ZM37.3646 176.5C37.0884 176.5 36.8646 176.724 36.8646 177C36.8646 177.276 37.0884 177.5 37.3646 177.5V176.5ZM43.4687 177.5C43.7449 177.5 43.9687 177.276 43.9687 177C43.9687 176.724 43.7449 176.5 43.4687 176.5V177.5ZM49.5729 176.5C49.2968 176.5 49.0729 176.724 49.0729 177C49.0729 177.276 49.2968 177.5 49.5729 177.5V176.5ZM55.6771 177.5C55.9532 177.5 56.1771 177.276 56.1771 177C56.1771 176.724 55.9532 176.5 55.6771 176.5V177.5ZM61.7812 176.5C61.5051 176.5 61.2812 176.724 61.2812 177C61.2812 177.276 61.5051 177.5 61.7812 177.5V176.5ZM67.8854 177.5C68.1616 177.5 68.3854 177.276 68.3854 177C68.3854 176.724 68.1616 176.5 67.8854 176.5V177.5ZM73.9896 176.5C73.7134 176.5 73.4896 176.724 73.4896 177C73.4896 177.276 73.7134 177.5 73.9896 177.5V176.5ZM80.0938 177.5C80.3699 177.5 80.5938 177.276 80.5938 177C80.5938 176.724 80.3699 176.5 80.0938 176.5V177.5ZM86.1979 176.5C85.9218 176.5 85.6979 176.724 85.6979 177C85.6979 177.276 85.9218 177.5 86.1979 177.5V176.5ZM92.3021 177.5C92.5782 177.5 92.8021 177.276 92.8021 177C92.8021 176.724 92.5782 176.5 92.3021 176.5V177.5ZM98.4062 176.5C98.1301 176.5 97.9062 176.724 97.9062 177C97.9062 177.276 98.1301 177.5 98.4062 177.5V176.5ZM104.51 177.5C104.787 177.5 105.01 177.276 105.01 177C105.01 176.724 104.787 176.5 104.51 176.5V177.5ZM110.615 176.5C110.338 176.5 110.115 176.724 110.115 177C110.115 177.276 110.338 177.5 110.615 177.5V176.5ZM116.719 177.5C116.995 177.5 117.219 177.276 117.219 177C117.219 176.724 116.995 176.5 116.719 176.5V177.5ZM122.823 176.5C122.547 176.5 122.323 176.724 122.323 177C122.323 177.276 122.547 177.5 122.823 177.5V176.5ZM128.927 177.5C129.203 177.5 129.427 177.276 129.427 177C129.427 176.724 129.203 176.5 128.927 176.5V177.5ZM135.031 176.5C134.755 176.5 134.531 176.724 134.531 177C134.531 177.276 134.755 177.5 135.031 177.5V176.5ZM141.135 177.5C141.412 177.5 141.635 177.276 141.635 177C141.635 176.724 141.412 176.5 141.135 176.5V177.5ZM147.24 176.5C146.963 176.5 146.74 176.724 146.74 177C146.74 177.276 146.963 177.5 147.24 177.5V176.5ZM153.344 177.5C153.62 177.5 153.844 177.276 153.844 177C153.844 176.724 153.62 176.5 153.344 176.5V177.5ZM159.448 176.5C159.172 176.5 158.948 176.724 158.948 177C158.948 177.276 159.172 177.5 159.448 177.5V176.5ZM165.552 177.5C165.828 177.5 166.052 177.276 166.052 177C166.052 176.724 165.828 176.5 165.552 176.5V177.5ZM171.656 176.5C171.38 176.5 171.156 176.724 171.156 177C171.156 177.276 171.38 177.5 171.656 177.5V176.5ZM177.76 177.5C178.037 177.5 178.26 177.276 178.26 177C178.26 176.724 178.037 176.5 177.76 176.5V177.5ZM183.865 176.5C183.588 176.5 183.365 176.724 183.365 177C183.365 177.276 183.588 177.5 183.865 177.5V176.5ZM189.969 177.5C190.245 177.5 190.469 177.276 190.469 177C190.469 176.724 190.245 176.5 189.969 176.5V177.5ZM196.073 176.5C195.797 176.5 195.573 176.724 195.573 177C195.573 177.276 195.797 177.5 196.073 177.5V176.5ZM202.177 177.5C202.453 177.5 202.677 177.276 202.677 177C202.677 176.724 202.453 176.5 202.177 176.5V177.5ZM208.281 176.5C208.005 176.5 207.781 176.724 207.781 177C207.781 177.276 208.005 177.5 208.281 177.5V176.5ZM214.385 177.5C214.662 177.5 214.885 177.276 214.885 177C214.885 176.724 214.662 176.5 214.385 176.5V177.5ZM220.49 176.5C220.213 176.5 219.99 176.724 219.99 177C219.99 177.276 220.213 177.5 220.49 177.5V176.5ZM226.594 177.5C226.87 177.5 227.094 177.276 227.094 177C227.094 176.724 226.87 176.5 226.594 176.5V177.5ZM232.698 176.5C232.422 176.5 232.198 176.724 232.198 177C232.198 177.276 232.422 177.5 232.698 177.5V176.5ZM238.802 177.5C239.078 177.5 239.302 177.276 239.302 177C239.302 176.724 239.078 176.5 238.802 176.5V177.5ZM244.906 176.5C244.63 176.5 244.406 176.724 244.406 177C244.406 177.276 244.63 177.5 244.906 177.5V176.5ZM251.01 177.5C251.287 177.5 251.51 177.276 251.51 177C251.51 176.724 251.287 176.5 251.01 176.5V177.5ZM257.115 176.5C256.839 176.5 256.615 176.724 256.615 177C256.615 177.276 256.839 177.5 257.115 177.5V176.5ZM263.219 177.5C263.495 177.5 263.719 177.276 263.719 177C263.719 176.724 263.495 176.5 263.219 176.5V177.5ZM269.323 176.5C269.047 176.5 268.823 176.724 268.823 177C268.823 177.276 269.047 177.5 269.323 177.5V176.5ZM275.427 177.5C275.703 177.5 275.927 177.276 275.927 177C275.927 176.724 275.703 176.5 275.427 176.5V177.5ZM281.531 176.5C281.255 176.5 281.031 176.724 281.031 177C281.031 177.276 281.255 177.5 281.531 177.5V176.5ZM287.635 177.5C287.912 177.5 288.135 177.276 288.135 177C288.135 176.724 287.912 176.5 287.635 176.5V177.5ZM293.74 176.5C293.463 176.5 293.24 176.724 293.24 177C293.24 177.276 293.463 177.5 293.74 177.5V176.5ZM299.844 177.5C300.12 177.5 300.344 177.276 300.344 177C300.344 176.724 300.12 176.5 299.844 176.5V177.5ZM305.948 176.5C305.672 176.5 305.448 176.724 305.448 177C305.448 177.276 305.672 177.5 305.948 177.5V176.5ZM16 177.5H19.0521V176.5H16V177.5ZM25.1562 177.5H31.2604V176.5H25.1562V177.5ZM37.3646 177.5H43.4687V176.5H37.3646V177.5ZM49.5729 177.5H55.6771V176.5H49.5729V177.5ZM61.7812 177.5H67.8854V176.5H61.7812V177.5ZM73.9896 177.5H80.0938V176.5H73.9896V177.5ZM86.1979 177.5H92.3021V176.5H86.1979V177.5ZM98.4062 177.5H104.51V176.5H98.4062V177.5ZM110.615 177.5H116.719V176.5H110.615V177.5ZM122.823 177.5H128.927V176.5H122.823V177.5ZM135.031 177.5H141.135V176.5H135.031V177.5ZM147.24 177.5H153.344V176.5H147.24V177.5ZM159.448 177.5H165.552V176.5H159.448V177.5ZM171.656 177.5H177.76V176.5H171.656V177.5ZM183.865 177.5H189.969V176.5H183.865V177.5ZM196.073 177.5H202.177V176.5H196.073V177.5ZM208.281 177.5H214.385V176.5H208.281V177.5ZM220.49 177.5H226.594V176.5H220.49V177.5ZM232.698 177.5H238.802V176.5H232.698V177.5ZM244.906 177.5H251.01V176.5H244.906V177.5ZM257.115 177.5H263.219V176.5H257.115V177.5ZM269.323 177.5H275.427V176.5H269.323V177.5ZM281.531 177.5H287.635V176.5H281.531V177.5ZM293.74 177.5H299.844V176.5H293.74V177.5ZM305.948 177.5H309V176.5H305.948V177.5ZM16 176C15.4477 176 15 176.448 15 177C15 177.552 15.4477 178 16 178V176ZM19.0521 178C19.6044 178 20.0521 177.552 20.0521 177C20.0521 176.448 19.6044 176 19.0521 176V178ZM25.1562 176C24.604 176 24.1562 176.448 24.1562 177C24.1562 177.552 24.604 178 25.1562 178V176ZM31.2604 178C31.8127 178 32.2604 177.552 32.2604 177C32.2604 176.448 31.8127 176 31.2604 176V178ZM37.3646 176C36.8123 176 36.3646 176.448 36.3646 177C36.3646 177.552 36.8123 178 37.3646 178V176ZM43.4687 178C44.021 178 44.4687 177.552 44.4687 177C44.4687 176.448 44.021 176 43.4687 176V178ZM49.5729 176C49.0206 176 48.5729 176.448 48.5729 177C48.5729 177.552 49.0206 178 49.5729 178V176ZM55.6771 178C56.2294 178 56.6771 177.552 56.6771 177C56.6771 176.448 56.2294 176 55.6771 176V178ZM61.7812 176C61.229 176 60.7812 176.448 60.7812 177C60.7812 177.552 61.229 178 61.7812 178V176ZM67.8854 178C68.4377 178 68.8854 177.552 68.8854 177C68.8854 176.448 68.4377 176 67.8854 176V178ZM73.9896 176C73.4373 176 72.9896 176.448 72.9896 177C72.9896 177.552 73.4373 178 73.9896 178V176ZM80.0938 178C80.646 178 81.0938 177.552 81.0938 177C81.0938 176.448 80.646 176 80.0938 176V178ZM86.1979 176C85.6456 176 85.1979 176.448 85.1979 177C85.1979 177.552 85.6456 178 86.1979 178V176ZM92.3021 178C92.8544 178 93.3021 177.552 93.3021 177C93.3021 176.448 92.8544 176 92.3021 176V178ZM98.4062 176C97.854 176 97.4062 176.448 97.4062 177C97.4062 177.552 97.854 178 98.4062 178V176ZM104.51 178C105.063 178 105.51 177.552 105.51 177C105.51 176.448 105.063 176 104.51 176V178ZM110.615 176C110.062 176 109.615 176.448 109.615 177C109.615 177.552 110.062 178 110.615 178V176ZM116.719 178C117.271 178 117.719 177.552 117.719 177C117.719 176.448 117.271 176 116.719 176V178ZM122.823 176C122.271 176 121.823 176.448 121.823 177C121.823 177.552 122.271 178 122.823 178V176ZM128.927 178C129.479 178 129.927 177.552 129.927 177C129.927 176.448 129.479 176 128.927 176V178ZM135.031 176C134.479 176 134.031 176.448 134.031 177C134.031 177.552 134.479 178 135.031 178V176ZM141.135 178C141.688 178 142.135 177.552 142.135 177C142.135 176.448 141.688 176 141.135 176V178ZM147.24 176C146.687 176 146.24 176.448 146.24 177C146.24 177.552 146.687 178 147.24 178V176ZM153.344 178C153.896 178 154.344 177.552 154.344 177C154.344 176.448 153.896 176 153.344 176V178ZM159.448 176C158.896 176 158.448 176.448 158.448 177C158.448 177.552 158.896 178 159.448 178V176ZM165.552 178C166.104 178 166.552 177.552 166.552 177C166.552 176.448 166.104 176 165.552 176V178ZM171.656 176C171.104 176 170.656 176.448 170.656 177C170.656 177.552 171.104 178 171.656 178V176ZM177.76 178C178.313 178 178.76 177.552 178.76 177C178.76 176.448 178.313 176 177.76 176V178ZM183.865 176C183.312 176 182.865 176.448 182.865 177C182.865 177.552 183.312 178 183.865 178V176ZM189.969 178C190.521 178 190.969 177.552 190.969 177C190.969 176.448 190.521 176 189.969 176V178ZM196.073 176C195.521 176 195.073 176.448 195.073 177C195.073 177.552 195.521 178 196.073 178V176ZM202.177 178C202.729 178 203.177 177.552 203.177 177C203.177 176.448 202.729 176 202.177 176V178ZM208.281 176C207.729 176 207.281 176.448 207.281 177C207.281 177.552 207.729 178 208.281 178V176ZM214.385 178C214.938 178 215.385 177.552 215.385 177C215.385 176.448 214.938 176 214.385 176V178ZM220.49 176C219.937 176 219.49 176.448 219.49 177C219.49 177.552 219.937 178 220.49 178V176ZM226.594 178C227.146 178 227.594 177.552 227.594 177C227.594 176.448 227.146 176 226.594 176V178ZM232.698 176C232.146 176 231.698 176.448 231.698 177C231.698 177.552 232.146 178 232.698 178V176ZM238.802 178C239.354 178 239.802 177.552 239.802 177C239.802 176.448 239.354 176 238.802 176V178ZM244.906 176C244.354 176 243.906 176.448 243.906 177C243.906 177.552 244.354 178 244.906 178V176ZM251.01 178C251.563 178 252.01 177.552 252.01 177C252.01 176.448 251.563 176 251.01 176V178ZM257.115 176C256.562 176 256.115 176.448 256.115 177C256.115 177.552 256.562 178 257.115 178V176ZM263.219 178C263.771 178 264.219 177.552 264.219 177C264.219 176.448 263.771 176 263.219 176V178ZM269.323 176C268.771 176 268.323 176.448 268.323 177C268.323 177.552 268.771 178 269.323 178V176ZM275.427 178C275.979 178 276.427 177.552 276.427 177C276.427 176.448 275.979 176 275.427 176V178ZM281.531 176C280.979 176 280.531 176.448 280.531 177C280.531 177.552 280.979 178 281.531 178V176ZM287.635 178C288.188 178 288.635 177.552 288.635 177C288.635 176.448 288.188 176 287.635 176V178ZM293.74 176C293.187 176 292.74 176.448 292.74 177C292.74 177.552 293.187 178 293.74 178V176ZM299.844 178C300.396 178 300.844 177.552 300.844 177C300.844 176.448 300.396 176 299.844 176V178ZM305.948 176C305.396 176 304.948 176.448 304.948 177C304.948 177.552 305.396 178 305.948 178V176ZM16 178H19.0521V176H16V178ZM25.1562 178H31.2604V176H25.1562V178ZM37.3646 178H43.4687V176H37.3646V178ZM49.5729 178H55.6771V176H49.5729V178ZM61.7812 178H67.8854V176H61.7812V178ZM73.9896 178H80.0938V176H73.9896V178ZM86.1979 178H92.3021V176H86.1979V178ZM98.4062 178H104.51V176H98.4062V178ZM110.615 178H116.719V176H110.615V178ZM122.823 178H128.927V176H122.823V178ZM135.031 178H141.135V176H135.031V178ZM147.24 178H153.344V176H147.24V178ZM159.448 178H165.552V176H159.448V178ZM171.656 178H177.76V176H171.656V178ZM183.865 178H189.969V176H183.865V178ZM196.073 178H202.177V176H196.073V178ZM208.281 178H214.385V176H208.281V178ZM220.49 178H226.594V176H220.49V178ZM232.698 178H238.802V176H232.698V178ZM244.906 178H251.01V176H244.906V178ZM257.115 178H263.219V176H257.115V178ZM269.323 178H275.427V176H269.323V178ZM281.531 178H287.635V176H281.531V178ZM293.74 178H299.844V176H293.74V178ZM305.948 178H309V176H305.948V178Z" fill="#E5E5E5"/>
</svg>
